<svg id="Layer_1" data-name="Layer 1" xmlns="http://www.w3.org/2000/svg" xmlns:xlink="http://www.w3.org/1999/xlink" viewBox="0 0 200 200"><defs><clipPath id="clip-path"><rect width="200" height="200" fill="none"/></clipPath></defs><title>landscape_on-dark_200x200</title><g opacity="0.5"><g clip-path="url(#clip-path)"><g id="TgZYSA"><path d="M165.57,200c-.28-6.21,2-5,3.61-8.62a25.9,25.9,0,0,0,1.61-7.28,94.35,94.35,0,0,0,.5-9.51c0-3.42-.34-6.84-.45-10.26-.07-2.65,1-3.81,3.61-4.27,2.28-.41,4.4.25,6.51.8,2.54.68,5,1.64,7.51,2.47,2.06.68,3.14.32,4-1.51a85.34,85.34,0,0,0,4.66-11.12,7.49,7.49,0,0,0-1.64-7.66c-2.36-2.71-5.46-4.33-8.66-5.71a21.54,21.54,0,0,1-9-7.41c-1.86-2.57-4.27-3.31-7.38-2.67-1.8.37-3.67.34-5.5.54a15.93,15.93,0,0,0-4.65,1c-1.9.82-2.69,3.5-2.4,5.55.4,2.89,2.28,4.56,4.41,6.13.53.39,1,.85,1.51,1.24,2.28,1.7,1.55,7.43-1.51,8.35a7.53,7.53,0,0,1-3.61.24c-3-.68-6-1.29-9-1.74a9.65,9.65,0,0,1-8.14-6.84c-.82-2.34-1.57-4.71-2.52-7-1.27-3.07-3.59-5.33-6.11-7.4q-2.82-2.31-5.63-4.63c-2-1.7-4.16-3.35-6.12-5.15a10.26,10.26,0,0,1-2.91-5.61c-.54-2.5-.89-5.07-2.11-7.39a7,7,0,0,0-5.25-3.77A10.28,10.28,0,0,0,100,105.16a7.2,7.2,0,0,0-1.1,5.61,22.93,22.93,0,0,0,2,6.64c1.41,2.81,3.76,3.83,6.67,4.13a6.93,6.93,0,0,1,2.84.66c1.43.9,1.43,1.83.9,4.08a10.54,10.54,0,0,1-5.12,6.51,16.11,16.11,0,0,0-5.48,4.89A15.41,15.41,0,0,0,98,145.31c-.12,3.33-.06,6.67,0,10,0,2.25.34,4.52.19,6.75s-.7,4.68-1.07,7c-.28,1.76-.76,3.5.11,5.26a2.81,2.81,0,0,0,4.36,1.2,7.84,7.84,0,0,0,3.18-5.58c.37-2.39.6-4.81,2.08-6.91a4.65,4.65,0,0,1,4.9-2.18,5.14,5.14,0,0,1,4,3.94c.62,2.11,0,4.13-.32,6.13a24.11,24.11,0,0,0-.7,5.27c.1,2.25.22,4.51.24,6.76,0,3.16-1.5,3.62-3.43,6.76-1.79,2.94-6.12,4.15-5.57,10.39" fill="none" stroke="#fff" stroke-miterlimit="10" stroke-width="0.75"/><path d="M89.73,0a18,18,0,0,0,4,11.76,9.56,9.56,0,0,1,2,8.4,22.86,22.86,0,0,0-.72,5.62,14.55,14.55,0,0,0,2.17,6.52c1.63,3,4,5.61,4.76,9a28.4,28.4,0,0,1,1,5.38,81.25,81.25,0,0,1-.23,8.25,21.15,21.15,0,0,1-.75,4.25,7,7,0,0,0,1.66,6.51,46.14,46.14,0,0,0,3.51,4c2.65,2.57,3.8,5.83,4.62,9.28.69,2.88,1.6,5.64,3.85,7.79A12.51,12.51,0,0,0,120,89.2c4.89,1.85,9.88,3.42,14.73,5.35A27.19,27.19,0,0,1,140.52,98a47.12,47.12,0,0,0,7.78,4.35c2.64,1.23,4.13,3.42,5.28,6s2.54,5.21,5.22,6.79a9.09,9.09,0,0,0,9.4-.4c2.13-1.46,3-3.71,3.59-6A30.91,30.91,0,0,0,173.06,99a8.85,8.85,0,0,0-2.49-6.13c-1.86-1.81-3.85-3.5-5.59-5.41a39.47,39.47,0,0,1-4.61-5.89,10.39,10.39,0,0,1-1.08-7.73c.61-3,1.07-6,1.51-9,.26-1.74.37-3.5.51-5.26A11.6,11.6,0,0,0,160,53.69a11.34,11.34,0,0,1-1.37-5.75,3.26,3.26,0,0,1,.51-1.61c.81-1.12,2.26-1,3.6.11a12.16,12.16,0,0,1,2.89,4.12c.94,1.9,2,3.76,3.87,4.88a6.46,6.46,0,0,0,7.75-.26c2.88-2,4.74-4.9,6.64-7.75s3.44-5.53,5.75-7.89c2.75-2.82,6.22-4.14,9.89-5.13.19,0,.34-.24.51-.37" fill="none" stroke="#fff" stroke-miterlimit="10" stroke-width="0.75"/><path d="M102,200c-1.29-5.59,2.23-6.63,4.51-9.31,1.32-1.72,3.33-3.42,3.27-5.58-.09-2.79-1.47-3.94-4.15-3.26-1.34.34-2.68.64-4,1-4.5,1.24-8.84-2.23-9.65-6.39-.45-2.24.1-4.35.49-6.51a32.79,32.79,0,0,0,.51-4.63c.14-3.67.14-7.34.28-11,.1-2.59.22-5.19.51-7.76s.83-5.34,1.22-8a38.14,38.14,0,0,0,.49-4.51A20.82,20.82,0,0,0,94,127a47.15,47.15,0,0,1-2.32-11c-.28-3.56-1-7.09-1.46-10.64a45.65,45.65,0,0,0-.79-5.24,8.07,8.07,0,0,0-4-4.64A33.72,33.72,0,0,0,76,91.41a18.91,18.91,0,0,0-11,.07,12.6,12.6,0,0,0-4.61,3c-3.19,3.07-6.26,6.26-9.41,9.37-2.86,2.81-5.76,5.59-8.63,8.39a12,12,0,0,0-3.64,8.63c0,1-.27,2-.22,3,.25,5.61,1.3,11,4.46,15.79a17.92,17.92,0,0,1,3,7.25,12.12,12.12,0,0,1-.24,4.24c-.62,2.78-1.5,5.51-2.19,8.27a12.83,12.83,0,0,0-.27,2.63c-.1,2.54,0,5.11-.3,7.63a38.57,38.57,0,0,1-1.51,7.37c-.89,2.75-3.24,4.23-5.83,5.27-2.78,1.11-5.63,2.07-8.37,3.28-3.08,1.37-5.92,4.71-4.44,8.41,1.05,2.63,3.17,4.53,5.3,6.49" fill="none" stroke="#fff" stroke-miterlimit="10" stroke-width="0.75"/><path d="M89.73,200c0-6.22,3.57-6,3.57-10.26-.61-3.88-1-3.86-2.59-5.49-3.14-3.3-3.62-7.13-2.46-11.28a38.9,38.9,0,0,0,1.49-11.89,52.38,52.38,0,0,1,0-6c.18-2.22.8-4.41.92-6.64.17-3,.13-5.92,0-8.88a19.55,19.55,0,0,0-.76-4.87,21.46,21.46,0,0,0-3.59-6.14,8.82,8.82,0,0,1-1.83-5.39,21.25,21.25,0,0,1,.73-4.74,21.63,21.63,0,0,0,.94-6.89,21.89,21.89,0,0,0-2.34-9.27c-1.7-3.07-4.62-4.44-7.76-5.51a22,22,0,0,0-8.51-1.25,9.85,9.85,0,0,0-5,1.8,75.59,75.59,0,0,0-7,5.49,65.45,65.45,0,0,0-6,6c-2.19,2.48-4.93,4.55-6.38,7.62a19.75,19.75,0,0,0-1.49,4.87,26.3,26.3,0,0,0-.27,5.25,21.7,21.7,0,0,0,3.2,11.41,39.66,39.66,0,0,1,3,5.88,12.09,12.09,0,0,1,.58,6.62c-.55,3.92-2,7.71-1.56,11.76a12.42,12.42,0,0,0,2.27,6.26c1.31,1.75,3.29,1.93,5.25,2.13s3.68.25,5.5.52c3,.43,4.94,2.26,6.38,4.74,1.83,3.14,3.21,6.58,5.77,9.25a56.69,56.69,0,0,1,6.51,8.76c1.48,2.28,3.48,2.88,5.25,6.14" fill="none" stroke="#fff" stroke-miterlimit="10" stroke-width="0.75"/><path d="M22.4,200.13c-1.25-1.74-4.67-6.56-5.14-7.33-1.18-1.94-.37-3.3,1.28-5.68,2-2.91,5.1-4,8.37-4.78a19.73,19.73,0,0,0,7.86-3.27c2.69-2.13,3.79-5.28,4.65-8.48a54.11,54.11,0,0,0,1.29-8,49.54,49.54,0,0,1,2.19-9.65,12.83,12.83,0,0,0-1.25-11,39.3,39.3,0,0,1-5.5-13.9,28.78,28.78,0,0,1,0-11.51A10,10,0,0,1,39.67,111,106.35,106.35,0,0,0,48,104c3.91-4,7.52-8.28,9.79-13.48.59-1.37,1.6-2.85.37-4.35a7.18,7.18,0,0,0-2.24-1.87,18.36,18.36,0,0,0-7.75-1.78c-4.42-.1-8.84-.22-13.26-.24a12.8,12.8,0,0,0-8.39,3.25c-3.41,2.85-4.94,6.79-6.11,10.89a31.09,31.09,0,0,1-3.27,7.5c-1.2,2-2.24,4.11-2,6.5a14.51,14.51,0,0,0,2.32,5.9c1.37,2.27,3,4.39,3.79,7a9.79,9.79,0,0,1-.42,6.87A45.09,45.09,0,0,1,18.14,135c-1.73,2.84-4.34,12.63-5.19,15.81-1.7,6.4-10,12.68-12.51,13.3a3.81,3.81,0,0,1-.59.08" fill="none" stroke="#fff" stroke-miterlimit="10" stroke-width="0.75"/><path d="M0,160.27c1.92-.75,6.52-5.8,7.5-8.15,1.62-3.87,2.9-11.2,4.15-13.82,1.33-2.77,2.67-5.55,4.14-8.25,1.93-3.55,1.68-7,0-10.53-1-2.18-2-4.4-2.88-6.63A10.48,10.48,0,0,1,14,102.52a39.37,39.37,0,0,0,4.6-9.78,19.34,19.34,0,0,1,9.52-11.38,16.91,16.91,0,0,1,6-1.64c3.95-.44,7.95-.69,11.51-2.76,3.1-1.8,6.24-3.55,9.23-5.54a5.67,5.67,0,0,0,2.56-5A13.58,13.58,0,0,0,56,60.31a54.32,54.32,0,0,1-4.11-9.48A7.38,7.38,0,0,0,48,46.48c-2.77-1.43-5.49-3-8.61-3.68-1.86-.39-3.65-.62-5.4.6-1.37,1-1.73,2.38-2.08,3.79-.76,3-2,5.55-5.29,6.36-3.84.94-7.5.58-10.62-2.12-2.87-2.48-5.92-4.66-9.65-5.6a14.14,14.14,0,0,0-6.45-.34" fill="none" stroke="#fff" stroke-miterlimit="10" stroke-width="0.75"/><path d="M162.32,200a8.46,8.46,0,0,0-.33-1.75c-1-2.53.59-4.73,1.94-6.9s2.86-4.12,3.38-6.62c.39-1.87.76-3.74,1-5.63a27.53,27.53,0,0,0,.25-4.88c-.25-4.26-.78-8.44-2.94-12.29a13.87,13.87,0,0,0-6.56-5.84,29.64,29.64,0,0,0-7.49-2.4c-1.67-.28-3.35-.53-5-.88a9.31,9.31,0,0,1-7.27-6.37c-1.05-3-2-6-3.28-8.88-1.63-3.79-4.65-6.39-8.1-8.52a17.36,17.36,0,0,0-4.62-2.3,4.6,4.6,0,0,0-4.74,1.2,36.1,36.1,0,0,0-2.78,3.47c-1.91,2.43-3.87,4.81-5.75,7.27-3,3.93-2.44,7.24.52,11,1.67,2.13,4.14,3.18,6.47,4.42a42.53,42.53,0,0,1,5.25,3.13c3,2.2,3.24,5.09,1.63,8.35-1,2-2.14,3.85-3.24,5.77a15.9,15.9,0,0,0-2.38,7.76,29.56,29.56,0,0,1-2.06,10.64c-2.06,2.85-6.69,4.25-6.69,10.39" fill="none" stroke="#fff" stroke-miterlimit="10" stroke-width="0.75"/><path d="M-.07,180.35c4.94-2.26,8-5.31,9.82-5.25,5.67.19,7.07,3.82,10.07,3.82,1.52,0,3.7.59,5.21.44,6.23-.6,9.21-2.78,11.38-8.9a49,49,0,0,0,2.05-9.13c.5-3.28,1.26-6.52,2-9.76a12.1,12.1,0,0,0-1.13-8.27c-2-3.91-3.88-7.86-5.91-11.75a23.52,23.52,0,0,0-2.63-4c-1-1.2-1.7-1.07-2.6.23s-1.95,2.81-2.87,4.25c-1.45,2.24-3,4.44-4.23,6.78a13,13,0,0,0-1.18,8.74,43.54,43.54,0,0,1,.48,10.26,12.76,12.76,0,0,1-1,4c-2.32,3.54-6.65,6.16-8.36,4.6s-2.44-4.57-5.55-1.63S1.7,171.6,0,173.22" fill="none" stroke="#fff" stroke-miterlimit="10" stroke-width="0.75"/><path d="M0,140.3a9.82,9.82,0,0,0,5.63-4.13c1.84-2.67,3.72-5.31,5.5-8a9.78,9.78,0,0,0,.91-9.39c-1-2.58-1.87-5.22-2.63-7.88a12.12,12.12,0,0,1,1.71-11A32.52,32.52,0,0,0,15.6,90.6c1.35-4.09,4-7,7.29-9.64A23.27,23.27,0,0,1,33.67,76.5c4.72-.79,8.12-3.49,11-7a14.68,14.68,0,0,0,2-3.13,4.92,4.92,0,0,0-.49-4.48,13.38,13.38,0,0,0-4.24-4.76,3.3,3.3,0,0,0-3.65-.17,16.28,16.28,0,0,1-8.61,1.8c-3.29-.15-6.59-.11-9.89-.28A8.91,8.91,0,0,1,13.39,55c-1.91-2.25-3.72-4.61-6.51-5.89-2.57-1.34-4.33.91-1.15,3.35a16.43,16.43,0,0,1,3.16,3,51.12,51.12,0,0,0,6,7.15,7.07,7.07,0,0,0,6,1.83c1.88-.23,3.71-.69,5.64-.23a9.1,9.1,0,0,1,5.08,2.92c1.51,1.83,1,3.49-.48,4.44A19,19,0,0,1,27.4,73.2a46.75,46.75,0,0,0-5.72,2.06,26.23,26.23,0,0,0-11,11.48,82.83,82.83,0,0,1-3.82,7.59,11,11,0,0,0-1.93,6.42c0,1.13.12,2.26.25,3.38a31.74,31.74,0,0,0,.64,4.37c.84,3.2,1.83,6.35,2.73,9.52a6.85,6.85,0,0,1-.74,6c-1.87,2.78-4.71,3.59-7.77,4" fill="none" stroke="#fff" stroke-miterlimit="10" stroke-width="0.75"/><path d="M83.6,0c.63,1.21,1.32,2.39,1.86,3.64,1.38,3.19,2.55,6.48,4.06,9.61s1.07,6.18.19,9.27S87.83,28.35,87,31.29s-.07,3.9,3.23,5.64a17.29,17.29,0,0,1,6.65,5.74,10.13,10.13,0,0,1,0,11.53c-.78,1.15-1.55,2.3-2.25,3.5a5.74,5.74,0,0,0,.4,6.36,30.24,30.24,0,0,0,3.24,4c2.16,2.34,4.51,4.51,6.59,6.92,2.42,2.82,3.38,6.37,4.43,9.86a55.64,55.64,0,0,0,2,5.26c1,2.38,3.15,3.33,5.38,3.84a27.85,27.85,0,0,1,13.13,6.92c2.28,2.13,5.17,3.1,8,4.12,1.85.67,3.75,1.19,5.63,1.77a11.89,11.89,0,0,1,6.92,5.61,27.42,27.42,0,0,0,4.57,6.17,10.48,10.48,0,0,0,6.78,2.73A37.16,37.16,0,0,0,173,119.82c2.08-.52,4.37-.85,6,1.22a31.63,31.63,0,0,1,1.9,3.12c1.13,1.87,2.27,3.74,3.37,5.63A9,9,0,0,0,188,133c3.87,2.09,7.4,8.17,12,7.29" fill="none" stroke="#fff" stroke-miterlimit="10" stroke-width="0.75"/><path d="M200,37.67a16.08,16.08,0,0,0-10.63,7.52c-1.81,3-3.41,6.15-5.29,9.11a26.4,26.4,0,0,1-8.64,8.85,20.08,20.08,0,0,1-5,1.78,7,7,0,0,0-4.61,4,15.79,15.79,0,0,0-1.57,6.62,9,9,0,0,0,1.55,5,45.86,45.86,0,0,0,6.76,7.76A11.85,11.85,0,0,1,175.94,94a22.64,22.64,0,0,1,.62,4c.1,2,.06,3.92,0,5.88,0,1.79-.27,3.59-.21,5.38a13.51,13.51,0,0,0,.91,4.15c.82,2.25,2.54,2.88,4.56,3.09s3.84.25,5.76.26a12.63,12.63,0,0,0,11.75-6.63,12.37,12.37,0,0,0,.64-1.49" fill="none" stroke="#fff" stroke-miterlimit="10" stroke-width="0.75"/><path d="M102,0a25.18,25.18,0,0,0,2.26,7.88c1.27,2.34,3.54,3.34,5.87,4.27,2.91,1.17,6,2,8.65,3.73a22.61,22.61,0,0,1,6.5,6.89c2.31,3.44,4.7,6.83,7,10.28a8.25,8.25,0,0,0,7.27,3.87h8.14c1.12,0,2.26-.09,3.37,0,2.4.22,4-1.15,5.5-2.66a11.59,11.59,0,0,1,5.15-3.08,41.87,41.87,0,0,1,4.87-.79c4-.58,8-3,9.13-6.76a11.65,11.65,0,0,0,.16-5.63,29.58,29.58,0,0,1-.5-4.88,39.83,39.83,0,0,0-1.64-10c-.29-1-.43-2.09-.64-3.13" fill="none" stroke="#fff" stroke-miterlimit="10" stroke-width="0.75"/><path d="M170.33,0c.25,1.92.64,3.83.72,5.76.18,4.08.29,8.18.23,12.26a10.75,10.75,0,0,1-1,4.48c-1.14,2.29-3.46,3.07-5.83,3.38a44.31,44.31,0,0,0-14.3,4,10.16,10.16,0,0,1-8.35.84,4.56,4.56,0,0,1-3-5.27c.33-1.14,1.37-1.68,2.34-2.28,1.3-.8,2.71-1.54,3.16-3.23a3.2,3.2,0,0,0-1-3.26c-2.73-2.07-4.93-1.34-6.77,1a10.72,10.72,0,0,1-2.53,2.7c-1.57.94-3.15,0-4.44-.86a46.66,46.66,0,0,1-5-4,28.7,28.7,0,0,0-7.76-4.64A38.59,38.59,0,0,1,111,8,10.51,10.51,0,0,1,106.24.5c0-.13-.16-.25-.24-.37" fill="none" stroke="#fff" stroke-miterlimit="10" stroke-width="0.75"/><path d="M200,40.8c-.54.25-1.08.52-1.63.75a14.32,14.32,0,0,0-7.25,6.89c-1.42,2.73-2.54,5.65-4.2,8.22a75.17,75.17,0,0,1-6,7.53c-2.32,2.76-4.83,5.37-7.09,8.17-2.51,3.09-2.29,6.94-.16,10.37,1.54,2.48,3.15,4.93,4.46,7.54a19.79,19.79,0,0,1,1.41,5c.65,3.32,1.08,6.69,1.8,10,.81,3.71,5.43,6.55,8.23,6.55a5.52,5.52,0,0,0,5-3.67c.3-1.4.55-2.83.75-4.25.29-2.12.52-4.25.76-6.38.18-1.59.36-3.17.49-4.76A15.44,15.44,0,0,1,200,84.36" fill="none" stroke="#fff" stroke-miterlimit="10" stroke-width="0.75"/><path d="M147.05,200c-1.75-6.57,5.88-6.4,8.08-8.62,2-2,4.76-2.9,6.69-4.9a12.81,12.81,0,0,0,3.49-8.13,46.6,46.6,0,0,0,.23-6.13,13.92,13.92,0,0,0-5.07-10.42,15.83,15.83,0,0,0-6.79-3.47,11.47,11.47,0,0,0-2.63-.48c-3.12,0-6.26,0-9.38.28-1.43.12-3.1-.12-4.25,1.2a12.45,12.45,0,0,0-1.37,1.63,27.77,27.77,0,0,1-7.75,7.9,20,20,0,0,0-5.69,6,12.74,12.74,0,0,0-1.79,6c-.13,2.66.22,5.34.24,8,0,5.08-11,6.25-7.42,11.14" fill="none" stroke="#fff" stroke-miterlimit="10" stroke-width="0.75"/><path d="M140.67,200c-4.14-6.76,4.64-8.86,7.26-11.13,3-2.63,8.15-3.41,10.89-6.39a13.07,13.07,0,0,0,3-7.26,11.69,11.69,0,0,0-.27-4.89,9.3,9.3,0,0,0-4.38-5.77c-3.52-2.13-6.84-1.87-10.29.24a71.09,71.09,0,0,1-13.24,6.07c-3.18,1.13-6.26,2.54-8.27,5.48a10.92,10.92,0,0,0-1.91,5.5A17.67,17.67,0,0,0,125.55,192c1,1.78,6.45,4.67,2.73,8.15" fill="none" stroke="#fff" stroke-miterlimit="10" stroke-width="0.75"/><path d="M168.08,0c.08,2.92.39,5.86.18,8.76a38.45,38.45,0,0,1-1.5,8.24,6,6,0,0,1-5.19,4.52c-2.78.34-5.5.36-7.63-1.88A33.58,33.58,0,0,1,150.83,16a19.22,19.22,0,0,0-5.69-4.8,18.23,18.23,0,0,0-7-2.9,8.52,8.52,0,0,0-4.51.61,18.32,18.32,0,0,0-2.76,1.48,6.26,6.26,0,0,1-5.5.2c-3.22-1.09-6.37-2.42-9.52-3.72A10.93,10.93,0,0,1,109.51.13" fill="none" stroke="#fff" stroke-miterlimit="10" stroke-width="0.75"/><path d="M176.33.13c1.13,2.67,2.31,5.31,3.35,8a8.91,8.91,0,0,1,.4,2.74c.19,3.88.4,7.76.49,11.64A9.39,9.39,0,0,1,178,29.16a42,42,0,0,1-7.13,5.76,12.2,12.2,0,0,0-1.25.88c-1.62,1.49-2.22,3.18-.73,6.11a17.11,17.11,0,0,0,2.5,3.63c2.83,3.1,5.34,2.58,8.07.09a36.3,36.3,0,0,0,5.14-6c2.59-3.68,6.16-5.81,10.29-7.25,1.72-.59,3.39-1.32,5.08-2" fill="none" stroke="#fff" stroke-miterlimit="10" stroke-width="0.75"/><path d="M59.2,0a13.84,13.84,0,0,1-.78,5.75c-1.1,2.77-3.51,4.07-6.1,5.15a16.34,16.34,0,0,0-5.3,3,7.75,7.75,0,0,0-2.28,4.67c-.6,4.23-3.06,6.9-6.57,8.88a17.11,17.11,0,0,1-8.38,2c-2.26,0-4.52-.13-6.76,0C15,30,7.75,32.41,3.84,33,.55,33.55,0,34,0,34" fill="none" stroke="#fff" stroke-miterlimit="10" stroke-width="0.75"/><path d="M54.44,0a6.92,6.92,0,0,1-5.27,6.1,19.32,19.32,0,0,1-5.12.74c-3,0-4.15,1.63-4.63,3.8-.58,2.63-1.05,5.29-1.78,7.88-1,3.38-2.93,6-6.49,7a22.11,22.11,0,0,1-4.87.63c-2.67.1-5.35-.11-8,.07s-5.13.33-7.24,2c-2.94,2.32-7.22.67-11.1,2.23" fill="none" stroke="#fff" stroke-miterlimit="10" stroke-width="0.75"/><path d="M75.34,0c4,2.47,7.3,5.52,9.27,9.88a17.25,17.25,0,0,1,1.82,6.64,13.49,13.49,0,0,1-2.09,6.88c-1.68,3-4,5.44-6.22,8-1.5,1.78-2.82,3.71-4.14,5.63a6.72,6.72,0,0,1-3.89,2.88,8.1,8.1,0,0,1-4.77-.25c-2.34-.79-4.71-1.61-7.25-1.26a31.78,31.78,0,0,0-4.25.77,15.15,15.15,0,0,1-8.77-.26,34.18,34.18,0,0,0-12.89-1.76,10.85,10.85,0,0,0-5,1.51c-1.55,1-2,2.55-2.26,4.24-.11.79-.09,1.61-.27,2.37-.51,2.09-2.21,3-4.49,2.24S15.73,46,13.51,45.19c-3.2-1.13-3.16-2.7-6.75-3.61C5.57,41.28,2.26,40,0,40.86" fill="none" stroke="#fff" stroke-miterlimit="10" stroke-width="0.75"/><path d="M27.53,0C29.57,2.92,32,5.62,33,9.14s1,7.11-1.1,10.38a6.35,6.35,0,0,1-5.25,3.13,52.49,52.49,0,0,1-6.13.22c-4.22-.27-8.86-.66-11.39-4.36-3-4.39-3.91-4.73-4.78-8.56S1.79,4.39,0,5.51" fill="none" stroke="#fff" stroke-miterlimit="10" stroke-width="0.75"/><path d="M64.7.13c1,3.19,3.23,4.89,6.5,5.55a17.49,17.49,0,0,1,4.87,1.74A9,9,0,0,1,81.19,16a9.08,9.08,0,0,1-2.5,6,99.89,99.89,0,0,1-7.77,7.49c-1.91,1.63-4.44,1.67-6.84,1.39a27.06,27.06,0,0,0-7.52,0c-2.07.33-4.16.57-6.25.75-2.71.23-5.45.16-8.13.56a111.86,111.86,0,0,1-14.4.74c-2.85.07-5.76.32-8.12,2.24a29.56,29.56,0,0,0-3.37,3.25c-1.6,1.78-6.18-.33-9.67-1-2.61-.49-6,.34-6.69.34" fill="none" stroke="#fff" stroke-miterlimit="10" stroke-width="0.75"/><path d="M200,173.22a15.16,15.16,0,0,1-6.39,2.33,4.9,4.9,0,0,1-4-1.35,31,31,0,0,1-3-3.37c-1.53-2-3.09-3.93-5.41-5a7.44,7.44,0,0,0-3.73-.72c-1.85.25-2.8,1.79-3.11,3.56a24.92,24.92,0,0,0-.27,3.87c0,3.09,0,6.18,0,9.26a24.11,24.11,0,0,1-1.68,9.18c-1.58,3.31-4.06,4-4.31,9" fill="none" stroke="#fff" stroke-miterlimit="10" stroke-width="0.75"/><path d="M199.93,45.43c-3.83,1.77-5.6,5.11-6.84,8.88-.65,2-1.08,4.1-2.49,5.76a26.88,26.88,0,0,1-2,2.25c-3.83,3.65-6.52,8.12-9.12,12.65-1.67,2.91-1.41,5.84,0,8.76a54.33,54.33,0,0,1,3.76,8.51c.54,1.86,1.24,3.67,1.87,5.51a2.12,2.12,0,0,0,.25.62c.69.84,1.56,1.7,2.62,1.57a3.54,3.54,0,0,0,2.85-2.7c.63-2.26,1-4.6,1.56-6.87a34.65,34.65,0,0,1,1.89-5.87c1.79-3.86,3.8-7.61,5.71-11.41,0-.07,1.06,0,1.06,0" fill="none" stroke="#fff" stroke-miterlimit="10" stroke-width="0.75"/><path d="M5.9,0a24.87,24.87,0,0,0,.89,7.88A14.52,14.52,0,0,0,11.64,15c1.12.88,2.22,1.79,3.38,2.62a12.34,12.34,0,0,0,8.26,2.22c4.08-.29,6.76-2.78,5.92-7.73-.45-2.66-2.05-4.62-3.42-6.75Q24.1,2.76,22.4.13" fill="none" stroke="#fff" stroke-miterlimit="10" stroke-width="0.75"/><path d="M146.81,67.08A7,7,0,0,1,139.29,74a19,19,0,0,1-4.12-.52c-2.37-.64-2.9-2-1.89-4.34a48.81,48.81,0,0,0,2.52-7.64,19.06,19.06,0,0,1,1.28-4.11c1.13-2.16,2.56-2.54,4-1.35a17.83,17.83,0,0,1,4.9,7A8.44,8.44,0,0,1,146.81,67.08Z" fill="none" stroke="#fff" stroke-miterlimit="10" stroke-width="0.75"/><path d="M67.83,121c-.59,2.9-2.22,5.39-3.53,8a18.32,18.32,0,0,1-2.12,3.13,2,2,0,0,1-2.6.38,6.77,6.77,0,0,1-3.38-4.12,13.49,13.49,0,0,1-.25-6.88,9.68,9.68,0,0,1,4.39-7c2.86-1.71,6.18-.94,7.35,2.09A8,8,0,0,1,67.83,121Z" fill="none" stroke="#fff" stroke-miterlimit="10" stroke-width="0.75"/><path d="M199.93,180.35a16.7,16.7,0,0,1-6.32,2c-3.29.19-6-1.21-8.64-3-.88-.61-1.72-1.31-2.64-1.86-1.22-.74-2-.54-2.73.74a11.14,11.14,0,0,0-1.48,5.25c.19,10-9.28,10.4-7.79,16.52" fill="none" stroke="#fff" stroke-miterlimit="10" stroke-width="0.75"/><path d="M75.36,200c-5.32-4.61-5.23-6.32-8.17-9.69a50.55,50.55,0,0,1-4.25-5.8A4.15,4.15,0,0,0,61.08,183c-1.45-.51-2.61.57-2.76,2.21-.23,2.55,1.64,4.29,2.45,6.63.94,2.72,3.06,4.7,3.95,8.26" fill="none" stroke="#fff" stroke-miterlimit="10" stroke-width="0.75"/><path d="M140.67,0c.83,1.29,1.62,2.62,2.51,3.87,1.77,2.48,4.23,4.23,6.64,6a69.11,69.11,0,0,0,6.51,4.37c3.31,1.9,5.91.44,7.38-2.34a17.43,17.43,0,0,0,1.86-7.77c0-1.38,0-2.75,0-4.13" fill="none" stroke="#fff" stroke-miterlimit="10" stroke-width="0.75"/><path d="M0,84.42c4-5.53,6.27-4.92,8.37-7.59,1.93-2.46,3.18-5.27,2.74-8.49a10.22,10.22,0,0,0-1.47-4.07C8.27,62,1.72,69.67,0,73.15" fill="none" stroke="#fff" stroke-miterlimit="10" stroke-width="0.75"/><path d="M200,187.36c-1.92,0-3.84.06-5.76,0-2.09-.09-4.17-.39-6.26-.46-3.59-.13-7.53,0-9,4.06-1.19,3.37-6.81,5.37-5.92,9.06" fill="none" stroke="#fff" stroke-miterlimit="10" stroke-width="0.75"/><path d="M200,123.4c-2.53,2.34-5.64-3.12-8.77-1.88-2.07.82-3.16,2-2.88,3.76a4.55,4.55,0,0,0,2,3c2.11,1.48,3.23-.13,5.67.39.87.19,3.1-.81,4-.64" fill="none" stroke="#fff" stroke-miterlimit="10" stroke-width="0.75"/><path d="M147.05,0a11,11,0,0,0,3.41,5.6,19.82,19.82,0,0,0,4.7,3.09c2.89,1.43,5.7.15,6.49-2.66a23.39,23.39,0,0,0,.67-6" fill="none" stroke="#fff" stroke-miterlimit="10" stroke-width="0.75"/><path d="M0,108.64c2.33-4.13,3.09-.61,4,2.11.53,1.59.2,2.22.66,3.84.93,3.22-.88,7.57-4.15,8.45-.18,0-.33.24-.5.36" fill="none" stroke="#fff" stroke-miterlimit="10" stroke-width="0.75"/><path d="M200,192.24c-.13-.12-.24-.35-.38-.36-1.29-.11-2.58-.19-3.88-.26-1.58-.09-3.17-.27-4.75-.23-2.37.06-7.87-.9-8.85,1.49-1.57,3.82-6.82,3.62-5.8,7.25" fill="none" stroke="#fff" stroke-miterlimit="10" stroke-width="0.75"/><path d="M5.9,200.5c.6-3.33,2.9-3.15,3.65-5.17a5.38,5.38,0,0,0-1.34-5.08c-2.12-1.94-3.86-2.89-8.22-2.89" fill="none" stroke="#fff" stroke-miterlimit="10" stroke-width="0.75"/><path d="M113.64,0a24.35,24.35,0,0,0,3.53,3.08c2.37,1.41,5,2,7.57.49,1.37-.83,2.37-2.28,3.54-3.44" fill="none" stroke="#fff" stroke-miterlimit="10" stroke-width="0.75"/><path d="M200,196.37c-2.21-.17-4.42-.4-6.64-.48a4.77,4.77,0,0,0-5,3.11,10.67,10.67,0,0,1-.53,1" fill="none" stroke="#fff" stroke-miterlimit="10" stroke-width="0.75"/><path d="M146.36,136.54a1.45,1.45,0,0,1,.69-1.5c.57-.13.76.53,1,.89.53.85.88,2.13-.16,2.39S146.47,137.21,146.36,136.54Z" fill="none" stroke="#fff" stroke-miterlimit="10" stroke-width="0.75"/><path d="M0,191.88c4.36.9,4.77,4.87,0,4.49" fill="none" stroke="#fff" stroke-miterlimit="10" stroke-width="0.75"/><path d="M31.55,156.82a5.59,5.59,0,0,1-.41,4.74c-.18.34-.67.75-1,.71a1.63,1.63,0,0,1-1-.83c-.84-1.54-.54-4.32,1-5.37C31.29,155.29,31.55,156.82,31.55,156.82Z" fill="none" stroke="#fff" stroke-miterlimit="10" stroke-width="0.75"/><path d="M116.89,34c-2.07.1-2.51,1.91-3.07,3.28-1,2.33-1.55,4.82-2.31,7.24a12.4,12.4,0,0,0,.89,9.37c1.47,3.08,3.08,6.1,4.61,9.15a49.3,49.3,0,0,1,4,12.26c1.08,5.22,3.42,8.13,9.35,9.38,2.74.58,5.56.81,8.24,1.57,2.37.68,4.58,1.92,6.91,2.8,1.18.44,2.38,1,3.75.42s2-1.26,2-2.78-.27-3-.2-4.5a31.88,31.88,0,0,1,.62-5.25c.61-2.94,1.61-5.82,2-8.78a15.3,15.3,0,0,0-1.22-8.86,40.84,40.84,0,0,1-2.95-8.53c-1.12-4.84-4.75-7.13-9.54-6.15a43,43,0,0,1-5.88.75,8.37,8.37,0,0,1-6.75-2.49c-2-2.06-4-4.2-6-6.23a15.59,15.59,0,0,0-2.63-2A8.22,8.22,0,0,0,117,34" fill="none" stroke="#fff" stroke-miterlimit="10" stroke-width="0.75"/><path d="M106.5,17.9a6.42,6.42,0,0,0-3.76,2.5,8.77,8.77,0,0,0-.36,9.26c1,2,2.06,3.93,3.12,5.88a14.37,14.37,0,0,1,1.48,7c0,1.84-.24,3.68-.21,5.51a33,33,0,0,0,2.45,11.78,49.62,49.62,0,0,0,4.17,7.61,19.69,19.69,0,0,1,3.14,8.77c.38,4.67,2.77,7.93,7,10a40.64,40.64,0,0,0,9.91,3.4,26.92,26.92,0,0,1,9.36,4.22,21.38,21.38,0,0,0,9.78,3.61c2.27.23,3.92,1.31,4.24,2.88.24,1.23.26,2.52.53,3.75a16.66,16.66,0,0,0,1.29,4.48,4.66,4.66,0,0,0,8,.8c1.84-2.16,3.16-7.74,1.44-10.39a11.14,11.14,0,0,0-2.49-2.5,10.92,10.92,0,0,0-2.36-1.27,4.48,4.48,0,0,1-2.74-3,41.74,41.74,0,0,0-3.76-8.51A12.91,12.91,0,0,1,155.55,75c.53-2.79,1.15-5.58,1.48-8.39a18.72,18.72,0,0,0-1.5-9.49,56.1,56.1,0,0,1-2.71-8.91c-.82-3.35-2.52-5.9-6-6.86a8.9,8.9,0,0,0-2.5-.37c-2.26,0-4.51.12-6.76.23a9.49,9.49,0,0,1-9-4.52c-2.17-3.37-4.25-6.8-6.26-10.26-1.77-3-3.83-5.84-7.17-7.21a18,18,0,0,0-8.49-1.29" fill="none" stroke="#fff" stroke-miterlimit="10" stroke-width="0.75"/><path d="M192.25,14.88a25,25,0,0,1,4.87,7.39,3.82,3.82,0,0,1-1.37,5.16,11.2,11.2,0,0,1-7,2A2.85,2.85,0,0,1,185.86,27a28.79,28.79,0,0,1-.5-10.26c.27-1.56.81-3.08,2.49-3.63C188.84,12.82,190.26,12.73,192.25,14.88Z" fill="none" stroke="#fff" stroke-miterlimit="10" stroke-width="0.75"/><path d="M134.41,175.34a11.84,11.84,0,0,1,3.63,0c3.16.43,5.4,2.53,3.62,6a18.67,18.67,0,0,1-6.78,7.47c-3,1.85-6,.86-7.55-2.35a9.83,9.83,0,0,1-.53-3.86,6.14,6.14,0,0,1,2.47-5A11.55,11.55,0,0,1,134.41,175.34Z" fill="none" stroke="#fff" stroke-miterlimit="10" stroke-width="0.75"/><path d="M14.14,2.63c-2.23.5-3,3-2,5.12a11.94,11.94,0,0,0,8,6.62,2,2,0,0,0,2.47-2.6,8.71,8.71,0,0,0-1.38-2.61,56.8,56.8,0,0,0-4.77-5.5C15.39,2.61,14.68,2.51,14.14,2.63Z" fill="none" stroke="#fff" stroke-miterlimit="10" stroke-width="0.75"/><path d="M37.92,186.61a6.26,6.26,0,0,1,5.35,2.52c1.73,2.25,1.61,4.2-.62,5.83a11.38,11.38,0,0,1-7.23,2.2A6.22,6.22,0,0,1,30.69,195c-1.09-1.28-2-2.78-1.27-4.6a3.94,3.94,0,0,1,2.11-2.27A12.23,12.23,0,0,1,37.92,186.61Z" fill="none" stroke="#fff" stroke-miterlimit="10" stroke-width="0.75"/><path d="M180,143.05c2.13,0,6.1.42,8.78,2.24a5,5,0,0,1,2.23,5.52c-.88,3.11-3.22,4.55-5.37,4.53a16.72,16.72,0,0,1-8.78-2.88c-2-1.24-1.95-4-1.61-5.65A5.53,5.53,0,0,1,180,143.05Z" fill="none" stroke="#fff" stroke-miterlimit="10" stroke-width="0.75"/><path d="M123.27,139.55a14.71,14.71,0,0,0-2.11,1.52,2.78,2.78,0,0,0,.62,4.6,4.94,4.94,0,0,0,4.48.36c2.15-.84,2.24-3.42,1.13-5a4,4,0,0,0-4-1.51" fill="none" stroke="#fff" stroke-miterlimit="10" stroke-width="0.75"/><path d="M32.4,138.81c1.13,1.93,2.27,3.87,3.23,5.89a14.11,14.11,0,0,1,1.24,4,20,20,0,0,1,0,4.37c-.18,2.35-.38,4.7-.76,7A36.86,36.86,0,0,1,33.66,169c-1.25,2.87-2.86,5.28-6.24,6-2.94.66-5.91-2-5-4.77a37.75,37.75,0,0,0,1.42-8.66c.3-3.2.41-6.42.52-9.63.08-2.42-.08-4.84,0-7.26.16-3.28,1.2-6.34,4.48-7.63C30.29,136.5,31.81,137.79,32.4,138.81Z" fill="none" stroke="#fff" stroke-miterlimit="10" stroke-width="0.75"/><path d="M123.52,132.79c-4.06,1-6.25,4.12-8.24,7.4a6.27,6.27,0,0,0,2,8.77,22.18,22.18,0,0,0,8,3.08,35.44,35.44,0,0,0,5.13.75,3.33,3.33,0,0,0,3.82-2.86c.92-5-.06-9.72-3.59-13.62a10.57,10.57,0,0,0-7-3.52" fill="none" stroke="#fff" stroke-miterlimit="10" stroke-width="0.75"/><path d="M87,45.68c-3.24.64-5,3-6.48,5.65a5.38,5.38,0,0,1-4.78,2.87c-1.72.12-3.42.35-5.14.49a4.59,4.59,0,0,0-4.4,4.76c-.15,3.23.84,6.22,1.66,9.26a20.3,20.3,0,0,1,.85,7,34.65,34.65,0,0,1-.49,3.5A4.25,4.25,0,0,0,70.6,84c2.07,1,4.25,1.75,6.36,2.67s4.34,2,6.52,3a54.39,54.39,0,0,0,13.13,4.15c2.16.37,4.13.39,6-1a6.33,6.33,0,0,0,2.59-4.3c.81-4.53-.83-8.31-3.76-11.62-1.64-1.86-3.37-3.63-5.12-5.39-1.5-1.5-3.19-2.83-4.6-4.41a58.5,58.5,0,0,1-4.14-5.37,5.1,5.1,0,0,1,.47-6.51,37.29,37.29,0,0,0,2.76-3C91.9,51,92.72,49.56,92.07,48S89.83,45.58,88,45.68c-.29,0-.58,0-.88,0" fill="none" stroke="#fff" stroke-miterlimit="10" stroke-width="0.75"/><path d="M145.53,51.82c1.48,3.27,2.95,6.55,4.23,9.9a11.92,11.92,0,0,1,.87,5.87,23.64,23.64,0,0,1-3.14,8.72,6.15,6.15,0,0,1-4.44,3.54,18.06,18.06,0,0,1-2.51.36c-3.17,0-6.35,0-9.51-.28a6.15,6.15,0,0,1-5.25-4.09,19.46,19.46,0,0,1-1.06-4.49c-.47-2.9-.12-5.47,1.94-7.64a14.41,14.41,0,0,0,3.86-6.89c.91-4.15,3.32-6.76,7.52-7.64.67-.14.63-.18,2-.49S143.27,47.81,145.53,51.82Z" fill="none" stroke="#fff" stroke-miterlimit="10" stroke-width="0.75"/><path d="M71.2,113a9.79,9.79,0,0,1,.62,7.5c-.67,2.44-1.57,4.82-2.22,7.27-1,3.68-.62,7.15,2.52,9.72a27.82,27.82,0,0,0,4.73,2.78c3.46,1.82,4.74,4,4.09,7.77a7.32,7.32,0,0,1-4.72,5.77c-2.54,1.06-5.07.77-7.64.24-4.5-.94-7.78-3.39-9.1-7.9a33.55,33.55,0,0,0-5.15-10.39A14.83,14.83,0,0,1,51.48,127a22.83,22.83,0,0,1,.74-5.5A17.75,17.75,0,0,1,59.07,111a11.78,11.78,0,0,1,4.38-1.76C66.63,108.53,70.12,111,71.2,113Z" fill="none" stroke="#fff" stroke-miterlimit="10" stroke-width="0.75"/><path d="M131.25,106.15a8.82,8.82,0,0,1,.39,5.11c-.44,1.81-1,1.92-2.62.9a5.26,5.26,0,0,1-2-2.52c-1-2.22-.54-3.64,1.51-4.88C129.34,104.26,130.66,104.53,131.25,106.15Z" fill="none" stroke="#fff" stroke-miterlimit="10" stroke-width="0.75"/><path d="M75.23,108.12c2.45,3.85,2.06,6,1.34,9.15-.59,2.57-1.45,5.08-2.08,7.64a12.2,12.2,0,0,0-.48,3.87,7.56,7.56,0,0,0,3.56,5.54,36.52,36.52,0,0,1,4.63,3.87c2.91,2.9,3.13,6.58,2.64,10.37-.38,2.88-1.71,5.45-3,8-1.36,2.71-2.11,5.41-1.21,8.54a5.24,5.24,0,0,1-.92,5c-1.42,1.63-2.58,1.66-3.6.23a13.6,13.6,0,0,1-1.39-2.87c-.36-.85-.48-1.81-.92-2.61-1-1.85-2.94-2.49-4.73-3.25-3-1.29-6.14-2.41-9.12-3.8-2.05-1-3.82-2.39-4.26-4.85-.37-2-.78-4.08-1-6.13A17.51,17.51,0,0,0,51.83,139c-1.4-2.21-3-4.36-3.52-7a20.49,20.49,0,0,1-.44-6.64,22.8,22.8,0,0,1,2.19-7.88,32.35,32.35,0,0,1,5.53-7.73,17.25,17.25,0,0,1,6.61-4.27C65.32,104.2,72.79,104.27,75.23,108.12Z" fill="none" stroke="#fff" stroke-miterlimit="10" stroke-width="0.75"/><path d="M78,70.61A19.35,19.35,0,0,0,76.76,75a9.56,9.56,0,0,0,.11,3.24,6,6,0,0,0,2.24,3.49,23,23,0,0,0,8.62,4.63,13.88,13.88,0,0,0,8.12.09c3.46-1.19,3.66-3.28,2.06-5.78a28.79,28.79,0,0,0-10.3-9.94A17,17,0,0,0,80.85,69C79.93,69.08,78.46,69.56,78,70.61Z" fill="none" stroke="#fff" stroke-miterlimit="10" stroke-width="0.75"/><path d="M74,100.75c4.18,2.15,9,7.48,7.74,13.26-.65,3-1.55,6-2.36,9-.87,3.2-.45,6.05,2.12,8.39a39.13,39.13,0,0,1,2.88,2.88A14.32,14.32,0,0,1,88,142.81a33.49,33.49,0,0,1-1.35,11.76A25.89,25.89,0,0,0,86,161.7a48.41,48.41,0,0,1,0,6.26c-.5,4.23-2.58,7.88-4.87,11.37a3.29,3.29,0,0,1-3.22,1.48A7.16,7.16,0,0,1,73.94,179a19.63,19.63,0,0,1-4.44-6.8c-1.7-3.71-4.6-5.81-8.29-7.14-2.26-.81-4.46-1.76-6.64-2.75A5.58,5.58,0,0,1,51,157.57a58.11,58.11,0,0,1,.22-8.13,17,17,0,0,0-.51-5.27,20.74,20.74,0,0,0-2.92-5.86,19.82,19.82,0,0,1-3.35-11c0-1.37.14-2.75.24-4.13a13.35,13.35,0,0,1,2-6.24,49,49,0,0,1,10-11.76,24.48,24.48,0,0,1,6.36-3.9C65.7,100.14,69.78,98.61,74,100.75Z" fill="none" stroke="#fff" stroke-miterlimit="10" stroke-width="0.75"/><path d="M192.07,73.84a11.9,11.9,0,0,1-.75,3.49,12.21,12.21,0,0,1-2.85,4.89,2.13,2.13,0,0,1-2.62.38,4.58,4.58,0,0,1-1.49-4.25c1-2.84,2.27-5.88,5.24-6.89C191.46,70.83,192,72.22,192.07,73.84Z" fill="none" stroke="#fff" stroke-miterlimit="10" stroke-width="0.75"/><path d="M40.18,91.73c2.39,1.33,3.35,3.69,2.46,5.88-1.08,2.69-3.3,4-6.09,4.67a4.68,4.68,0,0,1-4.38-.91c-1.93-1.59-1.86-4.94-1-7a6,6,0,0,1,4.49-3.64C37.46,90.37,38.23,90.59,40.18,91.73Z" fill="none" stroke="#fff" stroke-miterlimit="10" stroke-width="0.75"/><path d="M38,87.74c2.14.45,5.66,1.78,7.61,4.15A5.37,5.37,0,0,1,46.44,97a11.48,11.48,0,0,1-4.87,6.28,27,27,0,0,1-9.66,4,4,4,0,0,1-5-3.48,21.35,21.35,0,0,1,.26-8.39c.77-3.14,2.33-5.72,5.39-7.12A7.36,7.36,0,0,1,38,87.74Z" fill="none" stroke="#fff" stroke-miterlimit="10" stroke-width="0.75"/><path d="M40.17,85.26c3.61.7,7,2,9.51,4.86a5.08,5.08,0,0,1,1,5c-.81,3.09-2.71,5.49-4.8,7.74a31.49,31.49,0,0,1-7.37,5.38,15.71,15.71,0,0,0-6.87,7.16c-.62,1.4-1.11,2.86-1.78,4.24-.75,1.56-1.6,1.49-2.72.5-1.72-1.53-3.42-3.09-5-4.76-2.19-2.32-3-5-1.78-8.12.54-1.37,1.09-2.73,1.49-4.14.89-3.07,1.6-6.19,2.54-9.25,1.34-4.32,3.93-7.53,8.5-8.76A12.92,12.92,0,0,1,40.17,85.26Z" fill="none" stroke="#fff" stroke-miterlimit="10" stroke-width="0.75"/></g><path d="M54.44,200c.46-2.68,4.66-6,4.76,0" fill="none" stroke="#fff" stroke-miterlimit="10" stroke-width="0.75"/><path d="M200,160.27c-3.78,1.09-2.57,4,0,3.94" fill="none" stroke="#fff" stroke-miterlimit="10" stroke-width="0.75"/><path d="M187.82,0c-1.46,2.36-3.64,8.44,1.77,6.37s4.07.09,6.63.29A4.64,4.64,0,0,0,200,5.51" fill="none" stroke="#fff" stroke-miterlimit="10" stroke-width="0.75"/></g></g></svg>